<svg xmlns="http://www.w3.org/2000/svg" version="1.1" xmlns:xlink="http://www.w3.org/1999/xlink" xmlns:svgjs="http://svgjs.com/svgjs" width="1000" height="1000"><style>
    #light-icon {
      display: inline;
    }
    #dark-icon {
      display: none;
    }

    @media (prefers-color-scheme: dark) {
      #light-icon {
        display: none;
      }
      #dark-icon {
        display: inline;
      }
    }
  </style><g id="light-icon"><svg xmlns="http://www.w3.org/2000/svg" version="1.1" xmlns:xlink="http://www.w3.org/1999/xlink" xmlns:svgjs="http://svgjs.com/svgjs" width="1000" height="1000"><rect width="1000" height="1000" rx="200" ry="200" fill="#000000"></rect><g transform="matrix(8.333333333333334,0,0,8.333333333333334,100.03817113240558,100.01909474531806)"><svg xmlns="http://www.w3.org/2000/svg" version="1.1" xmlns:xlink="http://www.w3.org/1999/xlink" xmlns:svgjs="http://svgjs.com/svgjs" width="96" height="96"><svg xmlns="http://www.w3.org/2000/svg" xmlns:xlink="http://www.w3.org/1999/xlink" width="96" zoomAndPan="magnify" viewBox="0 0 72 72" height="96" preserveAspectRatio="xMidYMid meet" version="1.0"><defs><clipPath id="1a0020c0b1"><path d="M 5.125 0.355469 L 45 0.355469 L 45 62 L 5.125 62 Z M 5.125 0.355469 " clip-rule="nonzero"></path></clipPath><clipPath id="8c31be663c"><path d="M 27 8 L 66.625 8 L 66.625 71.605469 L 27 71.605469 Z M 27 8 " clip-rule="nonzero"></path></clipPath></defs><g clip-path="url(#1a0020c0b1)"><path fill="#ffffff" d="M 32.824219 56.625 C 32.824219 44.097656 32.824219 31.570312 32.824219 19.039062 L 24.484375 23.855469 L 24.484375 31.828125 L 13.46875 31.828125 L 13.46875 22.992188 C 23.757812 17.050781 34.046875 11.113281 44.335938 5.171875 L 35.996094 0.355469 C 25.707031 6.296875 15.417969 12.238281 5.128906 18.179688 C 5.128906 30.058594 5.128906 41.941406 5.128906 53.820312 L 13.46875 58.636719 L 13.46875 40.167969 L 24.484375 40.167969 L 24.484375 61.4375 Z M 32.824219 56.625 " fill-opacity="1" fill-rule="nonzero"></path></g><g clip-path="url(#8c31be663c)"><path fill="#ffffff" d="M 66.863281 27.808594 L 66.863281 18.179688 L 50.589844 8.78125 C 46.785156 10.980469 42.976562 13.179688 39.175781 15.375 C 39.175781 27.902344 39.175781 40.429688 39.175781 52.957031 L 47.511719 48.144531 L 47.511719 40.167969 L 58.527344 40.167969 L 58.527344 49.003906 C 48.238281 54.945312 37.949219 60.886719 27.660156 66.828125 L 35.996094 71.640625 L 66.863281 53.820312 C 66.863281 46.492188 66.863281 39.160156 66.863281 31.828125 L 47.511719 31.828125 L 47.511719 16.632812 Z M 66.863281 27.808594 " fill-opacity="1" fill-rule="nonzero"></path></g></svg></svg></g></svg></g><g id="dark-icon"><svg xmlns="http://www.w3.org/2000/svg" version="1.1" xmlns:xlink="http://www.w3.org/1999/xlink" xmlns:svgjs="http://svgjs.com/svgjs" width="1000" height="1000"><rect width="1000" height="1000" rx="200" ry="200" fill="#ffffff"></rect><g transform="matrix(8.333333333333334,0,0,8.333333333333334,101.24129613240558,100.19096974531806)"><svg xmlns="http://www.w3.org/2000/svg" version="1.1" xmlns:xlink="http://www.w3.org/1999/xlink" xmlns:svgjs="http://svgjs.com/svgjs" width="96" height="96"><svg xmlns="http://www.w3.org/2000/svg" xmlns:xlink="http://www.w3.org/1999/xlink" width="96" zoomAndPan="magnify" viewBox="0 0 72 72" height="96" preserveAspectRatio="xMidYMid meet" version="1.0"><defs><clipPath id="9bbe9e03bf"><path d="M 5.125 0.355469 L 45 0.355469 L 45 62 L 5.125 62 Z M 5.125 0.355469 " clip-rule="nonzero"></path></clipPath><clipPath id="817b0d0fd9"><path d="M 27 8 L 66.625 8 L 66.625 71.605469 L 27 71.605469 Z M 27 8 " clip-rule="nonzero"></path></clipPath></defs><g clip-path="url(#9bbe9e03bf)"><path fill="#000000" d="M 32.710938 56.597656 C 32.710938 44.074219 32.710938 31.554688 32.710938 19.03125 L 24.40625 23.84375 L 24.40625 31.8125 L 13.4375 31.8125 L 13.4375 22.984375 C 23.683594 17.042969 33.929688 11.109375 44.179688 5.167969 L 35.875 0.355469 C 25.625 6.296875 15.378906 12.230469 5.128906 18.171875 C 5.128906 30.042969 5.128906 41.921875 5.128906 53.796875 L 13.4375 58.609375 L 13.4375 40.148438 L 24.40625 40.148438 L 24.40625 61.410156 Z M 32.710938 56.597656 " fill-opacity="1" fill-rule="nonzero"></path></g><g clip-path="url(#817b0d0fd9)"><path fill="#000000" d="M 66.617188 27.792969 L 66.617188 18.171875 L 50.410156 8.777344 C 46.621094 10.976562 42.828125 13.171875 39.039062 15.367188 C 39.039062 27.890625 39.039062 40.410156 39.039062 52.933594 L 47.34375 48.121094 L 47.34375 40.148438 L 58.3125 40.148438 L 58.3125 48.980469 C 48.066406 54.917969 37.816406 60.859375 27.570312 66.792969 L 35.875 71.605469 L 66.617188 53.796875 C 66.617188 46.46875 66.617188 39.140625 66.617188 31.8125 L 47.34375 31.8125 L 47.34375 16.625 Z M 66.617188 27.792969 " fill-opacity="1" fill-rule="nonzero"></path></g></svg></svg></g></svg></g></svg>