<svg xmlns="http://www.w3.org/2000/svg" xmlns:xlink="http://www.w3.org/1999/xlink" width="96" zoomAndPan="magnify" viewBox="0 0 72 72" height="96" preserveAspectRatio="xMidYMid meet" version="1.0"><defs><clipPath id="9bbe9e03bf"><path d="M 5.125 0.355469 L 45 0.355469 L 45 62 L 5.125 62 Z M 5.125 0.355469 " clip-rule="nonzero"/></clipPath><clipPath id="817b0d0fd9"><path d="M 27 8 L 66.625 8 L 66.625 71.605469 L 27 71.605469 Z M 27 8 " clip-rule="nonzero"/></clipPath></defs><g clip-path="url(#9bbe9e03bf)"><path fill="#000000" d="M 32.710938 56.597656 C 32.710938 44.074219 32.710938 31.554688 32.710938 19.03125 L 24.40625 23.84375 L 24.40625 31.8125 L 13.4375 31.8125 L 13.4375 22.984375 C 23.683594 17.042969 33.929688 11.109375 44.179688 5.167969 L 35.875 0.355469 C 25.625 6.296875 15.378906 12.230469 5.128906 18.171875 C 5.128906 30.042969 5.128906 41.921875 5.128906 53.796875 L 13.4375 58.609375 L 13.4375 40.148438 L 24.40625 40.148438 L 24.40625 61.410156 Z M 32.710938 56.597656 " fill-opacity="1" fill-rule="nonzero"/></g><g clip-path="url(#817b0d0fd9)"><path fill="#000000" d="M 66.617188 27.792969 L 66.617188 18.171875 L 50.410156 8.777344 C 46.621094 10.976562 42.828125 13.171875 39.039062 15.367188 C 39.039062 27.890625 39.039062 40.410156 39.039062 52.933594 L 47.34375 48.121094 L 47.34375 40.148438 L 58.3125 40.148438 L 58.3125 48.980469 C 48.066406 54.917969 37.816406 60.859375 27.570312 66.792969 L 35.875 71.605469 L 66.617188 53.796875 C 66.617188 46.46875 66.617188 39.140625 66.617188 31.8125 L 47.34375 31.8125 L 47.34375 16.625 Z M 66.617188 27.792969 " fill-opacity="1" fill-rule="nonzero"/></g></svg>