<svg xmlns="http://www.w3.org/2000/svg" xmlns:xlink="http://www.w3.org/1999/xlink" width="96" zoomAndPan="magnify" viewBox="0 0 72 72" height="96" preserveAspectRatio="xMidYMid meet" version="1.0"><defs><clipPath id="1a0020c0b1"><path d="M 5.125 0.355469 L 45 0.355469 L 45 62 L 5.125 62 Z M 5.125 0.355469 " clip-rule="nonzero"/></clipPath><clipPath id="8c31be663c"><path d="M 27 8 L 66.625 8 L 66.625 71.605469 L 27 71.605469 Z M 27 8 " clip-rule="nonzero"/></clipPath></defs><g clip-path="url(#1a0020c0b1)"><path fill="#ffffff" d="M 32.824219 56.625 C 32.824219 44.097656 32.824219 31.570312 32.824219 19.039062 L 24.484375 23.855469 L 24.484375 31.828125 L 13.46875 31.828125 L 13.46875 22.992188 C 23.757812 17.050781 34.046875 11.113281 44.335938 5.171875 L 35.996094 0.355469 C 25.707031 6.296875 15.417969 12.238281 5.128906 18.179688 C 5.128906 30.058594 5.128906 41.941406 5.128906 53.820312 L 13.46875 58.636719 L 13.46875 40.167969 L 24.484375 40.167969 L 24.484375 61.4375 Z M 32.824219 56.625 " fill-opacity="1" fill-rule="nonzero"/></g><g clip-path="url(#8c31be663c)"><path fill="#ffffff" d="M 66.863281 27.808594 L 66.863281 18.179688 L 50.589844 8.78125 C 46.785156 10.980469 42.976562 13.179688 39.175781 15.375 C 39.175781 27.902344 39.175781 40.429688 39.175781 52.957031 L 47.511719 48.144531 L 47.511719 40.167969 L 58.527344 40.167969 L 58.527344 49.003906 C 48.238281 54.945312 37.949219 60.886719 27.660156 66.828125 L 35.996094 71.640625 L 66.863281 53.820312 C 66.863281 46.492188 66.863281 39.160156 66.863281 31.828125 L 47.511719 31.828125 L 47.511719 16.632812 Z M 66.863281 27.808594 " fill-opacity="1" fill-rule="nonzero"/></g></svg>