<svg xmlns="http://www.w3.org/2000/svg" xmlns:xlink="http://www.w3.org/1999/xlink" width="500" zoomAndPan="magnify" viewBox="0 0 375 374.999991" height="500" preserveAspectRatio="xMidYMid meet" version="1.0"><defs><clipPath id="a03c8dbcf3"><path d="M 25.078125 0 L 230 0 L 230 319 L 25.078125 319 Z M 25.078125 0 " clip-rule="nonzero"/></clipPath><clipPath id="1464af88bf"><path d="M 142 43 L 346.828125 43 L 346.828125 371.25 L 142 371.25 Z M 142 43 " clip-rule="nonzero"/></clipPath><clipPath id="468f7b551e"><path d="M 32.503906 3.710938 L 237 3.710938 L 237 322 L 32.503906 322 Z M 32.503906 3.710938 " clip-rule="nonzero"/></clipPath><clipPath id="af5e4c637d"><path d="M 149 47 L 354.253906 47 L 354.253906 374.960938 L 149 374.960938 Z M 149 47 " clip-rule="nonzero"/></clipPath></defs><g clip-path="url(#a03c8dbcf3)"><path fill="#9cff1e" d="M 169.359375 293.070312 C 169.359375 227.820312 169.359375 162.570312 169.359375 97.3125 L 125.917969 122.398438 L 125.917969 163.921875 L 68.5625 163.921875 L 68.5625 117.90625 C 122.144531 86.953125 175.730469 56.027344 229.328125 25.078125 L 185.886719 0 C 132.304688 30.949219 78.707031 61.878906 25.121094 92.828125 C 25.121094 154.707031 25.121094 216.59375 25.121094 278.472656 L 68.5625 303.546875 L 68.5625 207.363281 L 125.917969 207.363281 L 125.917969 318.148438 Z M 169.359375 293.070312 " fill-opacity="1" fill-rule="nonzero"/></g><g clip-path="url(#1464af88bf)"><path fill="#9cff1e" d="M 346.664062 142.972656 L 346.664062 92.828125 L 261.898438 43.886719 C 242.085938 55.335938 222.253906 66.78125 202.441406 78.230469 C 202.441406 143.480469 202.441406 208.730469 202.441406 273.972656 L 245.867188 248.894531 L 245.867188 207.363281 L 303.238281 207.363281 L 303.238281 253.378906 C 249.652344 284.332031 196.054688 315.273438 142.46875 346.207031 L 185.886719 371.285156 L 346.65625 278.472656 C 346.65625 240.289062 346.65625 202.105469 346.65625 163.921875 L 245.867188 163.921875 L 245.867188 84.777344 Z M 346.664062 142.972656 " fill-opacity="1" fill-rule="nonzero"/></g><g clip-path="url(#468f7b551e)"><path fill="#2563eb" d="M 176.785156 296.78125 C 176.785156 231.535156 176.785156 166.285156 176.785156 101.027344 L 133.34375 126.109375 L 133.34375 167.636719 L 75.988281 167.636719 L 75.988281 121.617188 C 129.570312 90.667969 183.15625 59.738281 236.753906 28.789062 L 193.3125 3.710938 C 139.730469 34.664062 86.132812 65.589844 32.546875 96.542969 C 32.546875 158.421875 32.546875 220.304688 32.546875 282.183594 L 75.988281 307.261719 L 75.988281 211.074219 L 133.34375 211.074219 L 133.34375 321.859375 Z M 176.785156 296.78125 " fill-opacity="1" fill-rule="nonzero"/></g><g clip-path="url(#af5e4c637d)"><path fill="#2563eb" d="M 354.089844 146.6875 L 354.089844 96.542969 L 269.324219 47.597656 C 249.511719 59.050781 229.679688 70.492188 209.867188 81.941406 C 209.867188 147.191406 209.867188 212.441406 209.867188 277.683594 L 253.292969 252.609375 L 253.292969 211.074219 L 310.664062 211.074219 L 310.664062 257.09375 C 257.078125 288.042969 203.480469 318.984375 149.894531 349.921875 L 193.3125 374.996094 L 354.082031 282.183594 C 354.082031 244 354.082031 205.816406 354.082031 167.636719 L 253.292969 167.636719 L 253.292969 88.492188 Z M 354.089844 146.6875 " fill-opacity="1" fill-rule="nonzero"/></g></svg>