<svg xmlns="http://www.w3.org/2000/svg" xmlns:xlink="http://www.w3.org/1999/xlink" width="150" zoomAndPan="magnify" viewBox="0 0 112.5 44.999999" height="60" preserveAspectRatio="xMidYMid meet" version="1.0"><defs><g/><clipPath id="ac8a2264ce"><path d="M 58 5 L 112 5 L 112 44.898438 L 58 44.898438 Z M 58 5 " clip-rule="nonzero"/></clipPath><clipPath id="2327755088"><path d="M 55.75 10.984375 L 107.273438 -1.503906 L 116.242188 35.503906 L 64.71875 47.992188 Z M 55.75 10.984375 " clip-rule="nonzero"/></clipPath><clipPath id="0f42807eda"><path d="M 55.75 10.984375 L 107.273438 -1.503906 L 116.242188 35.503906 L 64.71875 47.992188 Z M 55.75 10.984375 " clip-rule="nonzero"/></clipPath><clipPath id="d9882302f1"><path d="M 0 18.910156 L 9.707031 18.910156 L 9.707031 28.617188 L 0 28.617188 Z M 0 18.910156 " clip-rule="nonzero"/></clipPath></defs><g clip-path="url(#ac8a2264ce)"><g clip-path="url(#2327755088)"><g clip-path="url(#0f42807eda)"><path fill="#9cff1e" d="M 110.425781 15.980469 C 110.617188 16.710938 111.023438 17.148438 111.355469 17.390625 C 110.855469 18.070312 110.351562 18.746094 109.84375 19.417969 C 109.292969 19.003906 108.394531 18.121094 108.003906 16.636719 C 107.074219 17.882812 106.132812 19.117188 105.179688 20.347656 C 104.089844 21.75 102.988281 23.140625 101.867188 24.519531 C 100.746094 25.898438 99.609375 27.261719 98.453125 28.613281 C 97.292969 29.960938 96.113281 31.292969 94.902344 32.605469 C 93.695312 33.917969 92.457031 35.207031 91.175781 36.457031 C 89.894531 37.710938 88.570312 38.929688 87.164062 40.085938 C 85.757812 41.230469 84.285156 42.328125 82.605469 43.230469 C 81.765625 43.671875 80.867188 44.070312 79.851562 44.316406 C 79.34375 44.4375 78.804688 44.515625 78.234375 44.507812 C 77.945312 44.503906 77.652344 44.472656 77.359375 44.421875 C 77.0625 44.363281 76.769531 44.277344 76.480469 44.160156 C 76.195312 44.039062 75.921875 43.890625 75.667969 43.71875 C 75.4375 43.539062 75.203125 43.375 74.996094 43.160156 C 74.78125 42.964844 74.597656 42.730469 74.417969 42.5 C 74.335938 42.375 74.257812 42.253906 74.175781 42.128906 C 74.136719 42.066406 74.101562 42.003906 74.070312 41.9375 L 73.972656 41.746094 C 73.722656 41.226562 73.550781 40.679688 73.46875 40.148438 L 73.433594 39.949219 L 73.410156 39.753906 C 73.398438 39.625 73.382812 39.492188 73.375 39.363281 C 73.367188 39.105469 73.347656 38.84375 73.359375 38.59375 C 73.378906 37.585938 73.535156 36.628906 73.753906 35.714844 C 73.96875 34.796875 74.238281 33.914062 74.539062 33.046875 C 75.136719 31.320312 75.847656 29.664062 76.582031 28.039062 C 77.320312 26.410156 78.089844 24.8125 78.851562 23.222656 C 79.613281 21.628906 80.371094 20.046875 81.070312 18.453125 C 81.769531 16.863281 82.429688 15.261719 82.902344 13.660156 C 83.136719 12.859375 83.324219 12.0625 83.414062 11.292969 L 83.4375 11.007812 L 83.449219 10.863281 L 83.449219 10.726562 C 83.453125 10.636719 83.457031 10.542969 83.457031 10.453125 L 83.445312 10.1875 C 83.417969 9.84375 83.359375 9.519531 83.261719 9.246094 C 83.160156 8.980469 83.019531 8.761719 82.839844 8.574219 C 82.792969 8.527344 82.753906 8.476562 82.695312 8.4375 L 82.617188 8.375 C 82.589844 8.355469 82.566406 8.332031 82.53125 8.3125 C 82.464844 8.273438 82.398438 8.230469 82.332031 8.1875 L 82.125 8.082031 C 81.84375 7.953125 81.535156 7.863281 81.210938 7.8125 C 80.882812 7.761719 80.53125 7.761719 80.171875 7.789062 C 79.449219 7.84375 78.6875 8.046875 77.933594 8.316406 C 77.183594 8.597656 76.433594 8.953125 75.699219 9.351562 C 74.230469 10.15625 72.816406 11.128906 71.449219 12.171875 C 70.082031 13.21875 68.757812 14.339844 67.46875 15.507812 C 66.183594 16.675781 64.929688 17.886719 63.707031 19.128906 C 63.09375 19.75 62.492188 20.382812 61.898438 21.019531 C 61.601562 21.339844 61.304688 21.660156 61.011719 21.980469 C 60.722656 22.300781 60.429688 22.632812 60.15625 22.945312 L 58.253906 21.3125 C 58.558594 20.957031 58.851562 20.628906 59.152344 20.296875 C 59.453125 19.964844 59.757812 19.636719 60.0625 19.308594 C 60.671875 18.652344 61.289062 18.007812 61.917969 17.371094 C 63.171875 16.09375 64.457031 14.851562 65.785156 13.648438 C 67.117188 12.441406 68.488281 11.277344 69.925781 10.179688 C 71.367188 9.082031 72.867188 8.042969 74.5 7.148438 C 75.316406 6.707031 76.167969 6.300781 77.070312 5.964844 C 77.976562 5.636719 78.933594 5.367188 79.972656 5.285156 C 80.492188 5.25 81.027344 5.246094 81.578125 5.332031 C 82.121094 5.414062 82.671875 5.570312 83.191406 5.8125 C 83.320312 5.875 83.449219 5.9375 83.574219 6.007812 L 83.9375 6.234375 C 83.996094 6.269531 84.058594 6.320312 84.117188 6.367188 L 84.296875 6.507812 C 84.421875 6.601562 84.527344 6.714844 84.636719 6.824219 C 85.074219 7.269531 85.40625 7.816406 85.613281 8.375 C 85.816406 8.933594 85.910156 9.488281 85.949219 10.023438 L 85.964844 10.421875 C 85.964844 10.550781 85.960938 10.679688 85.957031 10.808594 L 85.953125 11 L 85.90625 11.5625 C 85.792969 12.550781 85.570312 13.476562 85.308594 14.367188 C 84.78125 16.15625 84.089844 17.824219 83.367188 19.46875 C 82.644531 21.105469 81.878906 22.710938 81.113281 24.304688 C 80.351562 25.898438 79.585938 27.484375 78.867188 29.074219 C 78.148438 30.664062 77.464844 32.261719 76.90625 33.867188 C 76.628906 34.671875 76.382812 35.480469 76.195312 36.28125 C 76.007812 37.085938 75.882812 37.882812 75.867188 38.640625 C 75.855469 38.832031 75.875 39.011719 75.875 39.195312 C 75.882812 39.285156 75.894531 39.375 75.902344 39.460938 L 75.917969 39.59375 L 75.941406 39.722656 C 75.992188 40.066406 76.097656 40.371094 76.226562 40.644531 L 76.277344 40.746094 C 76.292969 40.78125 76.3125 40.816406 76.332031 40.84375 C 76.375 40.90625 76.414062 40.96875 76.453125 41.03125 C 76.546875 41.144531 76.628906 41.265625 76.746094 41.363281 C 76.84375 41.472656 76.976562 41.554688 77.09375 41.652344 C 77.203125 41.726562 77.316406 41.789062 77.4375 41.839844 C 77.5625 41.890625 77.691406 41.929688 77.828125 41.957031 C 77.96875 41.980469 78.117188 41.996094 78.269531 42 C 78.582031 42.003906 78.921875 41.957031 79.273438 41.875 C 79.980469 41.707031 80.714844 41.394531 81.429688 41.011719 C 82.867188 40.242188 84.25 39.230469 85.574219 38.144531 C 86.902344 37.054688 88.179688 35.878906 89.421875 34.664062 C 90.664062 33.449219 91.875 32.191406 93.058594 30.90625 C 94.246094 29.621094 95.40625 28.308594 96.546875 26.976562 C 97.691406 25.648438 98.8125 24.296875 99.921875 22.9375 C 101.027344 21.574219 102.121094 20.195312 103.195312 18.808594 C 104.140625 17.59375 105.070312 16.367188 105.992188 15.136719 C 104.464844 15.171875 103.375 14.539062 102.824219 14.125 C 103.3125 13.476562 103.800781 12.824219 104.28125 12.171875 C 104.613281 12.414062 105.148438 12.679688 105.894531 12.652344 C 106.640625 12.628906 107.613281 12.3125 108.785156 11.402344 L 110.753906 12.789062 C 110.25 14.230469 110.234375 15.246094 110.425781 15.980469 Z M 110.425781 15.980469 " fill-opacity="1" fill-rule="nonzero"/></g></g></g><g clip-path="url(#d9882302f1)"><path fill="#9cff1e" d="M 9.578125 22.398438 L 9.578125 25.027344 C 6.390625 25.960938 5.917969 27.613281 5.917969 28.515625 L 3.175781 28.515625 C 3.175781 27.761719 3.351562 26.398438 4.398438 25.082031 L 0 25.082031 L 0 22.34375 L 4.398438 22.34375 C 3.351562 21.027344 3.175781 19.664062 3.175781 18.910156 L 5.917969 18.910156 C 5.917969 19.8125 6.390625 21.464844 9.578125 22.398438 Z M 9.578125 22.398438 " fill-opacity="1" fill-rule="nonzero"/></g><g fill="#2563eb" fill-opacity="1"><g transform="translate(16.185874, 28.124623)"><g><path d="M 0.132812 0 L 3.890625 0 L 4.519531 -1.65625 L 8.4375 -1.65625 L 9.070312 0 L 12.828125 0 L 9.015625 -9.199219 L 3.941406 -9.199219 Z M 5.414062 -4.023438 L 6.480469 -6.835938 L 7.542969 -4.023438 Z M 5.414062 -4.023438 "/></g></g></g><g fill="#2563eb" fill-opacity="1"><g transform="translate(29.14423, 28.124623)"><g><path d="M 0.261719 0 L 3.679688 0 L 3.679688 -2.15625 L 5.691406 -2.15625 L 6.964844 0 L 11.015625 0 L 9.382812 -2.640625 C 10.394531 -3.234375 11.015625 -4.335938 11.015625 -5.679688 C 11.015625 -7.726562 9.582031 -9.199219 7.492188 -9.199219 L 0.261719 -9.199219 Z M 3.679688 -5.046875 L 3.679688 -6.308594 L 6.835938 -6.308594 C 7.175781 -6.308594 7.597656 -6.308594 7.597656 -5.679688 C 7.597656 -5.046875 7.175781 -5.046875 6.835938 -5.046875 Z M 3.679688 -5.046875 "/></g></g></g><g fill="#2563eb" fill-opacity="1"><g transform="translate(40.288946, 28.124623)"><g><path d="M 5.914062 0.132812 C 9.949219 0.132812 11.699219 -1.417969 11.699219 -4.613281 C 11.699219 -7.792969 9.949219 -9.332031 5.914062 -9.332031 C 1.867188 -9.332031 0.132812 -7.808594 0.132812 -4.613281 C 0.132812 -1.40625 1.867188 0.132812 5.914062 0.132812 Z M 5.914062 -2.761719 C 3.902344 -2.761719 3.546875 -3.628906 3.546875 -4.613281 C 3.546875 -5.585938 3.890625 -6.441406 5.914062 -6.441406 C 7.9375 -6.441406 8.28125 -5.574219 8.28125 -4.613281 C 8.28125 -3.640625 7.925781 -2.761719 5.914062 -2.761719 Z M 5.914062 -2.761719 "/></g></g></g><g fill="#2563eb" fill-opacity="1"><g transform="translate(52.11706, 28.124623)"><g><path d="M 6.007812 0.132812 C 9.777344 0.132812 11.882812 -0.511719 11.882812 -3.050781 C 11.882812 -5.453125 9.632812 -5.703125 6.007812 -5.847656 C 4.007812 -5.925781 3.679688 -5.914062 3.679688 -6.269531 C 3.679688 -6.625 4.007812 -6.703125 5.613281 -6.703125 C 7.28125 -6.703125 8.070312 -6.597656 8.070312 -6.113281 L 11.488281 -6.113281 C 11.488281 -8.464844 9.464844 -9.332031 5.875 -9.332031 C 2.246094 -9.332031 0.261719 -8.464844 0.261719 -6.441406 C 0.261719 -4.296875 1.851562 -3.613281 6.007812 -3.484375 C 8.160156 -3.417969 8.464844 -3.363281 8.464844 -2.96875 C 8.464844 -2.628906 8.160156 -2.496094 6.136719 -2.496094 C 3.96875 -2.496094 3.546875 -2.800781 3.546875 -3.246094 L 0.132812 -3.246094 C 0.132812 -0.511719 2.234375 0.132812 6.007812 0.132812 Z M 6.007812 0.132812 "/></g></g></g><g fill="#2563eb" fill-opacity="1"><g transform="translate(64.12917, 28.124623)"><g><path d="M 5.914062 0.132812 C 9.609375 0.132812 11.511719 -1.167969 11.65625 -4.085938 L 8.160156 -4.085938 C 8.03125 -3.207031 7.359375 -2.761719 5.914062 -2.761719 C 3.902344 -2.761719 3.546875 -3.628906 3.546875 -4.613281 C 3.546875 -5.585938 3.890625 -6.441406 5.914062 -6.441406 C 7.359375 -6.441406 8.03125 -6.007812 8.160156 -5.140625 L 11.65625 -5.140625 C 11.511719 -8.042969 9.59375 -9.332031 5.914062 -9.332031 C 1.867188 -9.332031 0.132812 -7.808594 0.132812 -4.613281 C 0.132812 -1.40625 1.867188 0.132812 5.914062 0.132812 Z M 5.914062 0.132812 "/></g></g></g><g fill="#2563eb" fill-opacity="1"><g transform="translate(75.917861, 28.124623)"><g><path d="M 0.261719 0 L 3.679688 0 L 3.679688 -1.746094 L 5.097656 -2.917969 L 8.042969 0 L 12.773438 0 L 7.476562 -4.863281 L 12.773438 -9.199219 L 7.914062 -9.199219 L 3.679688 -5.597656 L 3.679688 -9.199219 L 0.261719 -9.199219 Z M 0.261719 0 "/></g></g></g><g fill="#2563eb" fill-opacity="1"><g transform="translate(88.82365, 28.124623)"><g><path d="M 0.132812 0 L 3.890625 0 L 4.519531 -1.65625 L 8.4375 -1.65625 L 9.070312 0 L 12.828125 0 L 9.015625 -9.199219 L 3.941406 -9.199219 Z M 5.414062 -4.023438 L 6.480469 -6.835938 L 7.542969 -4.023438 Z M 5.414062 -4.023438 "/></g></g></g></svg>