<svg xmlns="http://www.w3.org/2000/svg" xmlns:xlink="http://www.w3.org/1999/xlink" width="150" zoomAndPan="magnify" viewBox="0 0 112.5 44.999999" height="60" preserveAspectRatio="xMidYMid meet" version="1.0"><defs><g/><clipPath id="610711b2ba"><path d="M 56 6 L 99 6 L 99 39 L 56 39 Z M 56 6 " clip-rule="nonzero"/></clipPath><clipPath id="9f7ec2299b"><path d="M 54.085938 11.144531 L 95.449219 1.121094 L 102.660156 30.871094 L 61.296875 40.898438 Z M 54.085938 11.144531 " clip-rule="nonzero"/></clipPath><clipPath id="760d8a1778"><path d="M 54.085938 11.144531 L 95.449219 1.121094 L 102.660156 30.871094 L 61.296875 40.898438 Z M 54.085938 11.144531 " clip-rule="nonzero"/></clipPath><clipPath id="e02481afa5"><path d="M 9.253906 17.519531 L 16.722656 17.519531 L 16.722656 24.988281 L 9.253906 24.988281 Z M 9.253906 17.519531 " clip-rule="nonzero"/></clipPath></defs><g clip-path="url(#610711b2ba)"><g clip-path="url(#9f7ec2299b)"><g clip-path="url(#760d8a1778)"><path fill="#9cff1e" d="M 98.054688 15.164062 C 98.210938 15.75 98.535156 16.101562 98.804688 16.300781 C 98.402344 16.84375 97.996094 17.386719 97.589844 17.929688 C 97.144531 17.59375 96.421875 16.886719 96.109375 15.691406 C 95.359375 16.695312 94.601562 17.6875 93.835938 18.675781 C 92.960938 19.804688 92.074219 20.921875 91.175781 22.03125 C 90.273438 23.140625 89.359375 24.238281 88.425781 25.320312 C 87.496094 26.40625 86.546875 27.480469 85.574219 28.535156 C 84.601562 29.589844 83.605469 30.625 82.574219 31.632812 C 81.542969 32.640625 80.480469 33.621094 79.351562 34.546875 C 78.21875 35.472656 77.035156 36.351562 75.683594 37.078125 C 75.007812 37.433594 74.285156 37.753906 73.46875 37.953125 C 73.0625 38.046875 72.628906 38.113281 72.167969 38.105469 C 71.9375 38.101562 71.699219 38.078125 71.464844 38.035156 C 71.226562 37.988281 70.988281 37.917969 70.757812 37.824219 C 70.527344 37.730469 70.308594 37.609375 70.101562 37.46875 C 69.917969 37.328125 69.730469 37.195312 69.566406 37.023438 C 69.390625 36.863281 69.246094 36.675781 69.097656 36.488281 C 69.035156 36.390625 68.96875 36.292969 68.90625 36.191406 C 68.871094 36.144531 68.84375 36.089844 68.820312 36.039062 L 68.742188 35.882812 C 68.539062 35.464844 68.402344 35.027344 68.335938 34.601562 L 68.308594 34.441406 L 68.289062 34.28125 C 68.28125 34.175781 68.265625 34.070312 68.257812 33.964844 C 68.253906 33.761719 68.238281 33.550781 68.246094 33.351562 C 68.265625 32.539062 68.390625 31.769531 68.5625 31.035156 C 68.738281 30.296875 68.953125 29.585938 69.195312 28.890625 C 69.679688 27.5 70.246094 26.167969 70.839844 24.859375 C 71.433594 23.550781 72.050781 22.265625 72.664062 20.988281 C 73.277344 19.707031 73.886719 18.433594 74.449219 17.152344 C 75.011719 15.875 75.542969 14.585938 75.921875 13.296875 C 76.113281 12.65625 76.261719 12.011719 76.332031 11.394531 L 76.351562 11.164062 L 76.359375 11.050781 L 76.363281 10.941406 C 76.363281 10.867188 76.367188 10.792969 76.367188 10.71875 L 76.359375 10.503906 C 76.335938 10.226562 76.292969 9.96875 76.210938 9.75 C 76.128906 9.535156 76.019531 9.359375 75.871094 9.207031 C 75.835938 9.171875 75.800781 9.128906 75.753906 9.101562 L 75.691406 9.050781 C 75.667969 9.03125 75.652344 9.015625 75.621094 9 C 75.570312 8.964844 75.515625 8.933594 75.464844 8.898438 L 75.296875 8.8125 C 75.070312 8.707031 74.824219 8.636719 74.5625 8.597656 C 74.300781 8.554688 74.015625 8.554688 73.726562 8.574219 C 73.144531 8.621094 72.53125 8.785156 71.929688 9.003906 C 71.320312 9.226562 70.71875 9.511719 70.128906 9.835938 C 68.949219 10.480469 67.8125 11.261719 66.710938 12.101562 C 65.613281 12.941406 64.546875 13.84375 63.511719 14.78125 C 62.476562 15.722656 61.46875 16.695312 60.484375 17.695312 C 59.996094 18.195312 59.507812 18.703125 59.03125 19.214844 C 58.792969 19.472656 58.554688 19.730469 58.320312 19.988281 C 58.085938 20.246094 57.847656 20.511719 57.628906 20.765625 L 56.101562 19.449219 C 56.34375 19.167969 56.582031 18.902344 56.824219 18.636719 C 57.066406 18.367188 57.308594 18.101562 57.554688 17.839844 C 58.046875 17.316406 58.542969 16.796875 59.046875 16.28125 C 60.054688 15.257812 61.089844 14.257812 62.15625 13.289062 C 63.226562 12.320312 64.332031 11.382812 65.488281 10.5 C 66.644531 9.617188 67.851562 8.78125 69.164062 8.0625 C 69.820312 7.707031 70.503906 7.378906 71.230469 7.109375 C 71.960938 6.847656 72.730469 6.628906 73.566406 6.5625 C 73.984375 6.535156 74.417969 6.53125 74.855469 6.601562 C 75.292969 6.667969 75.738281 6.792969 76.15625 6.988281 C 76.257812 7.039062 76.359375 7.089844 76.460938 7.144531 L 76.753906 7.328125 C 76.800781 7.355469 76.851562 7.394531 76.898438 7.433594 L 77.042969 7.546875 C 77.144531 7.621094 77.230469 7.710938 77.316406 7.800781 C 77.667969 8.160156 77.9375 8.597656 78.105469 9.046875 C 78.265625 9.496094 78.339844 9.945312 78.371094 10.375 L 78.386719 10.691406 C 78.386719 10.796875 78.382812 10.898438 78.378906 11.003906 L 78.375 11.160156 L 78.363281 11.308594 L 78.339844 11.613281 C 78.246094 12.40625 78.070312 13.148438 77.859375 13.867188 C 77.433594 15.304688 76.875 16.648438 76.296875 17.96875 C 75.714844 19.289062 75.097656 20.578125 74.484375 21.859375 C 73.871094 23.140625 73.257812 24.414062 72.675781 25.691406 C 72.097656 26.972656 71.550781 28.253906 71.101562 29.550781 C 70.878906 30.195312 70.679688 30.84375 70.527344 31.492188 C 70.375 32.136719 70.277344 32.777344 70.265625 33.386719 C 70.257812 33.539062 70.269531 33.683594 70.273438 33.835938 C 70.277344 33.90625 70.289062 33.976562 70.292969 34.046875 L 70.304688 34.15625 L 70.324219 34.257812 C 70.367188 34.53125 70.449219 34.777344 70.554688 35 L 70.59375 35.082031 C 70.609375 35.109375 70.621094 35.136719 70.640625 35.160156 C 70.671875 35.207031 70.703125 35.257812 70.734375 35.308594 C 70.8125 35.398438 70.878906 35.496094 70.972656 35.574219 C 71.050781 35.664062 71.15625 35.730469 71.25 35.808594 C 71.339844 35.867188 71.429688 35.917969 71.527344 35.960938 C 71.628906 36 71.730469 36.03125 71.84375 36.054688 C 71.957031 36.074219 72.074219 36.085938 72.199219 36.089844 C 72.449219 36.089844 72.722656 36.054688 73.003906 35.988281 C 73.570312 35.851562 74.164062 35.601562 74.738281 35.296875 C 75.894531 34.675781 77.003906 33.859375 78.070312 32.988281 C 79.136719 32.113281 80.164062 31.167969 81.164062 30.191406 C 82.164062 29.210938 83.136719 28.199219 84.089844 27.167969 C 85.042969 26.132812 85.976562 25.078125 86.894531 24.007812 C 87.816406 22.9375 88.71875 21.855469 89.609375 20.757812 C 90.5 19.660156 91.375 18.554688 92.242188 17.4375 C 93 16.460938 93.75 15.476562 94.492188 14.484375 C 93.261719 14.511719 92.386719 14.003906 91.941406 13.671875 C 92.335938 13.148438 92.726562 12.625 93.117188 12.101562 C 93.382812 12.296875 93.8125 12.507812 94.414062 12.488281 C 95.011719 12.46875 95.792969 12.214844 96.734375 11.480469 L 98.320312 12.597656 C 97.914062 13.757812 97.902344 14.574219 98.054688 15.164062 Z M 98.054688 15.164062 " fill-opacity="1" fill-rule="nonzero"/></g></g></g><g clip-path="url(#e02481afa5)"><path fill="#9cff1e" d="M 16.953125 20.324219 L 16.953125 22.441406 C 14.394531 23.1875 14.011719 24.519531 14.011719 25.242188 L 11.808594 25.242188 C 11.808594 24.636719 11.945312 23.542969 12.789062 22.484375 L 9.253906 22.484375 L 9.253906 20.28125 L 12.789062 20.28125 C 11.945312 19.222656 11.808594 18.128906 11.808594 17.523438 L 14.011719 17.523438 C 14.011719 18.246094 14.394531 19.578125 16.953125 20.324219 Z M 16.953125 20.324219 " fill-opacity="1" fill-rule="nonzero"/></g><g fill="#2563eb" fill-opacity="1"><g transform="translate(22.270489, 24.92936)"><g><path d="M 0.105469 0 L 3.128906 0 L 3.636719 -1.332031 L 6.785156 -1.332031 L 7.292969 0 L 10.316406 0 L 7.25 -7.398438 L 3.171875 -7.398438 Z M 4.355469 -3.234375 L 5.210938 -5.496094 L 6.066406 -3.234375 Z M 4.355469 -3.234375 "/></g></g></g><g fill="#2563eb" fill-opacity="1"><g transform="translate(32.691284, 24.92936)"><g><path d="M 0.210938 0 L 2.960938 0 L 2.960938 -1.734375 L 4.578125 -1.734375 L 5.601562 0 L 8.855469 0 L 7.546875 -2.125 C 8.359375 -2.601562 8.855469 -3.488281 8.855469 -4.566406 C 8.855469 -6.214844 7.707031 -7.398438 6.023438 -7.398438 L 0.210938 -7.398438 Z M 2.960938 -4.058594 L 2.960938 -5.074219 L 5.496094 -5.074219 C 5.769531 -5.074219 6.109375 -5.074219 6.109375 -4.566406 C 6.109375 -4.058594 5.769531 -4.058594 5.496094 -4.058594 Z M 2.960938 -4.058594 "/></g></g></g><g fill="#2563eb" fill-opacity="1"><g transform="translate(41.653593, 24.92936)"><g><path d="M 4.757812 0.105469 C 8 0.105469 9.40625 -1.140625 9.40625 -3.710938 C 9.40625 -6.269531 8 -7.503906 4.757812 -7.503906 C 1.5 -7.503906 0.105469 -6.277344 0.105469 -3.710938 C 0.105469 -1.132812 1.5 0.105469 4.757812 0.105469 Z M 4.757812 -2.21875 C 3.140625 -2.21875 2.855469 -2.917969 2.855469 -3.710938 C 2.855469 -4.492188 3.128906 -5.179688 4.757812 -5.179688 C 6.382812 -5.179688 6.660156 -4.480469 6.660156 -3.710938 C 6.660156 -2.925781 6.375 -2.21875 4.757812 -2.21875 Z M 4.757812 -2.21875 "/></g></g></g><g fill="#2563eb" fill-opacity="1"><g transform="translate(51.165475, 24.92936)"><g><path d="M 4.832031 0.105469 C 7.863281 0.105469 9.554688 -0.414062 9.554688 -2.453125 C 9.554688 -4.386719 7.746094 -4.585938 4.832031 -4.703125 C 3.222656 -4.765625 2.960938 -4.757812 2.960938 -5.042969 C 2.960938 -5.328125 3.222656 -5.390625 4.511719 -5.390625 C 5.855469 -5.390625 6.488281 -5.304688 6.488281 -4.914062 L 9.238281 -4.914062 C 9.238281 -6.808594 7.609375 -7.503906 4.722656 -7.503906 C 1.808594 -7.503906 0.210938 -6.808594 0.210938 -5.179688 C 0.210938 -3.457031 1.492188 -2.90625 4.832031 -2.800781 C 6.5625 -2.746094 6.808594 -2.707031 6.808594 -2.390625 C 6.808594 -2.113281 6.5625 -2.007812 4.9375 -2.007812 C 3.191406 -2.007812 2.855469 -2.25 2.855469 -2.609375 L 0.105469 -2.609375 C 0.105469 -0.414062 1.796875 0.105469 4.832031 0.105469 Z M 4.832031 0.105469 "/></g></g></g><g fill="#2563eb" fill-opacity="1"><g transform="translate(60.825322, 24.92936)"><g><path d="M 4.757812 0.105469 C 7.726562 0.105469 9.257812 -0.941406 9.375 -3.285156 L 6.5625 -3.285156 C 6.457031 -2.578125 5.917969 -2.21875 4.757812 -2.21875 C 3.140625 -2.21875 2.855469 -2.917969 2.855469 -3.710938 C 2.855469 -4.492188 3.128906 -5.179688 4.757812 -5.179688 C 5.917969 -5.179688 6.457031 -4.832031 6.5625 -4.132812 L 9.375 -4.132812 C 9.257812 -6.46875 7.714844 -7.503906 4.757812 -7.503906 C 1.5 -7.503906 0.105469 -6.277344 0.105469 -3.710938 C 0.105469 -1.132812 1.5 0.105469 4.757812 0.105469 Z M 4.757812 0.105469 "/></g></g></g><g fill="#2563eb" fill-opacity="1"><g transform="translate(70.305501, 24.92936)"><g><path d="M 0.210938 0 L 2.960938 0 L 2.960938 -1.40625 L 4.101562 -2.347656 L 6.46875 0 L 10.273438 0 L 6.015625 -3.910156 L 10.273438 -7.398438 L 6.363281 -7.398438 L 2.960938 -4.503906 L 2.960938 -7.398438 L 0.210938 -7.398438 Z M 0.210938 0 "/></g></g></g><g fill="#2563eb" fill-opacity="1"><g transform="translate(80.684022, 24.92936)"><g><path d="M 0.105469 0 L 3.128906 0 L 3.636719 -1.332031 L 6.785156 -1.332031 L 7.292969 0 L 10.316406 0 L 7.25 -7.398438 L 3.171875 -7.398438 Z M 4.355469 -3.234375 L 5.210938 -5.496094 L 6.066406 -3.234375 Z M 4.355469 -3.234375 "/></g></g></g></svg>