<svg xmlns="http://www.w3.org/2000/svg" xmlns:xlink="http://www.w3.org/1999/xlink" width="150" zoomAndPan="magnify" viewBox="0 0 112.5 44.999999" height="60" preserveAspectRatio="xMidYMid meet" version="1.0"><defs><g/><clipPath id="4dc49a2d3d"><path d="M 56 6 L 100 6 L 100 39 L 56 39 Z M 56 6 " clip-rule="nonzero"/></clipPath><clipPath id="777845ebf8"><path d="M 54.046875 10.933594 L 96.136719 0.730469 L 103.523438 31.210938 L 61.433594 41.410156 Z M 54.046875 10.933594 " clip-rule="nonzero"/></clipPath><clipPath id="cd96004bd5"><path d="M 54.046875 10.933594 L 96.136719 0.730469 L 103.523438 31.210938 L 61.433594 41.410156 Z M 54.046875 10.933594 " clip-rule="nonzero"/></clipPath><clipPath id="856d939f48"><path d="M 8.25 17.445312 L 16.464844 17.445312 L 16.464844 25.660156 L 8.25 25.660156 Z M 8.25 17.445312 " clip-rule="nonzero"/></clipPath></defs><g fill="#2563eb" fill-opacity="1"><g transform="translate(72.209464, 25.013592)"><g><path d="M 0.292969 0 L 2.828125 0 L 2.828125 -1.4375 L 4.371094 -2.625 L 7.070312 0 L 10.570312 0 L 6.152344 -4.058594 L 10.570312 -7.558594 L 6.910156 -7.558594 L 2.828125 -4.296875 L 2.828125 -7.558594 L 0.292969 -7.558594 Z M 0.292969 0 "/></g></g></g><g clip-path="url(#4dc49a2d3d)"><g clip-path="url(#777845ebf8)"><g clip-path="url(#cd96004bd5)"><path fill="#9cff1e" d="M 98.953125 15.035156 C 99.113281 15.636719 99.445312 15.996094 99.71875 16.195312 C 99.304688 16.753906 98.890625 17.308594 98.476562 17.859375 C 98.023438 17.519531 97.285156 16.796875 96.964844 15.578125 C 96.199219 16.601562 95.425781 17.613281 94.644531 18.625 C 93.75 19.773438 92.84375 20.917969 91.925781 22.050781 C 91.003906 23.183594 90.070312 24.304688 89.117188 25.414062 C 88.167969 26.519531 87.199219 27.617188 86.207031 28.691406 C 85.210938 29.769531 84.195312 30.828125 83.144531 31.855469 C 82.089844 32.886719 81 33.886719 79.847656 34.835938 C 78.695312 35.777344 77.484375 36.679688 76.105469 37.417969 C 75.414062 37.78125 74.675781 38.109375 73.84375 38.3125 C 73.425781 38.410156 72.980469 38.472656 72.511719 38.46875 C 72.277344 38.464844 72.035156 38.441406 71.792969 38.398438 C 71.550781 38.347656 71.308594 38.277344 71.074219 38.183594 C 70.839844 38.082031 70.613281 37.960938 70.40625 37.820312 C 70.214844 37.671875 70.023438 37.539062 69.855469 37.363281 C 69.675781 37.199219 69.527344 37.007812 69.378906 36.816406 C 69.3125 36.71875 69.246094 36.617188 69.183594 36.515625 C 69.148438 36.464844 69.121094 36.410156 69.09375 36.359375 L 69.011719 36.199219 C 68.808594 35.773438 68.667969 35.324219 68.597656 34.890625 L 68.570312 34.726562 L 68.550781 34.5625 C 68.542969 34.457031 68.527344 34.347656 68.519531 34.242188 C 68.515625 34.03125 68.5 33.816406 68.507812 33.609375 C 68.527344 32.78125 68.65625 31.996094 68.832031 31.246094 C 69.007812 30.492188 69.230469 29.765625 69.476562 29.054688 C 69.96875 27.636719 70.550781 26.277344 71.15625 24.941406 C 71.761719 23.605469 72.394531 22.292969 73.019531 20.984375 C 73.644531 19.675781 74.265625 18.375 74.84375 17.070312 C 75.417969 15.765625 75.957031 14.449219 76.347656 13.132812 C 76.542969 12.476562 76.691406 11.816406 76.765625 11.1875 L 76.785156 10.953125 L 76.796875 10.835938 L 76.796875 10.722656 C 76.800781 10.648438 76.804688 10.570312 76.800781 10.496094 L 76.792969 10.28125 C 76.773438 9.996094 76.722656 9.730469 76.644531 9.507812 C 76.558594 9.285156 76.445312 9.105469 76.296875 8.953125 C 76.257812 8.917969 76.226562 8.875 76.175781 8.84375 L 76.113281 8.792969 C 76.089844 8.773438 76.070312 8.753906 76.042969 8.738281 C 75.988281 8.707031 75.933594 8.671875 75.878906 8.636719 L 75.707031 8.550781 C 75.476562 8.445312 75.226562 8.371094 74.957031 8.328125 C 74.691406 8.285156 74.398438 8.289062 74.105469 8.308594 C 73.511719 8.351562 72.886719 8.519531 72.269531 8.742188 C 71.648438 8.972656 71.035156 9.265625 70.433594 9.59375 C 69.226562 10.253906 68.0625 11.054688 66.941406 11.910156 C 65.816406 12.769531 64.730469 13.691406 63.671875 14.648438 C 62.617188 15.605469 61.585938 16.601562 60.582031 17.625 C 60.078125 18.132812 59.585938 18.652344 59.097656 19.175781 C 58.851562 19.4375 58.609375 19.699219 58.371094 19.964844 C 58.132812 20.230469 57.886719 20.5 57.664062 20.757812 L 56.101562 19.414062 C 56.351562 19.125 56.59375 18.855469 56.84375 18.582031 C 57.089844 18.308594 57.339844 18.039062 57.589844 17.769531 C 58.089844 17.234375 58.597656 16.703125 59.113281 16.179688 C 60.140625 15.132812 61.199219 14.109375 62.289062 13.121094 C 63.382812 12.132812 64.507812 11.175781 65.691406 10.273438 C 66.871094 9.371094 68.105469 8.519531 69.445312 7.785156 C 70.117188 7.417969 70.816406 7.085938 71.554688 6.808594 C 72.300781 6.542969 73.085938 6.320312 73.941406 6.253906 C 74.367188 6.222656 74.808594 6.222656 75.257812 6.289062 C 75.707031 6.359375 76.160156 6.488281 76.585938 6.6875 C 76.691406 6.738281 76.796875 6.789062 76.898438 6.847656 L 77.195312 7.03125 C 77.246094 7.0625 77.296875 7.101562 77.347656 7.140625 L 77.492188 7.257812 C 77.59375 7.332031 77.683594 7.425781 77.773438 7.515625 C 78.132812 7.882812 78.40625 8.332031 78.574219 8.789062 C 78.742188 9.25 78.816406 9.707031 78.847656 10.144531 L 78.863281 10.46875 C 78.863281 10.578125 78.859375 10.683594 78.859375 10.789062 L 78.851562 10.945312 L 78.839844 11.101562 L 78.816406 11.410156 C 78.722656 12.21875 78.539062 12.980469 78.324219 13.714844 C 77.890625 15.179688 77.320312 16.554688 76.730469 17.902344 C 76.136719 19.25 75.503906 20.566406 74.878906 21.875 C 74.25 23.183594 73.625 24.484375 73.035156 25.789062 C 72.441406 27.097656 71.882812 28.410156 71.425781 29.730469 C 71.195312 30.390625 70.992188 31.054688 70.839844 31.710938 C 70.683594 32.371094 70.582031 33.027344 70.570312 33.648438 C 70.558594 33.804688 70.574219 33.953125 70.578125 34.105469 C 70.582031 34.179688 70.59375 34.25 70.597656 34.324219 L 70.609375 34.433594 L 70.628906 34.535156 C 70.671875 34.820312 70.757812 35.070312 70.867188 35.296875 L 70.90625 35.378906 C 70.917969 35.40625 70.933594 35.433594 70.953125 35.460938 C 70.984375 35.507812 71.019531 35.5625 71.050781 35.613281 C 71.128906 35.703125 71.195312 35.804688 71.289062 35.882812 C 71.371094 35.972656 71.480469 36.042969 71.574219 36.121094 C 71.667969 36.183594 71.761719 36.234375 71.859375 36.277344 C 71.960938 36.316406 72.066406 36.347656 72.179688 36.371094 C 72.296875 36.390625 72.414062 36.40625 72.542969 36.40625 C 72.800781 36.410156 73.078125 36.375 73.367188 36.308594 C 73.945312 36.167969 74.550781 35.910156 75.136719 35.597656 C 76.320312 34.964844 77.453125 34.132812 78.542969 33.242188 C 79.632812 32.347656 80.679688 31.382812 81.703125 30.382812 C 82.722656 29.386719 83.714844 28.351562 84.691406 27.296875 C 85.664062 26.238281 86.617188 25.164062 87.554688 24.070312 C 88.492188 22.976562 89.417969 21.871094 90.324219 20.75 C 91.234375 19.632812 92.132812 18.5 93.015625 17.359375 C 93.789062 16.363281 94.554688 15.355469 95.3125 14.34375 C 94.054688 14.371094 93.164062 13.855469 92.710938 13.515625 C 93.113281 12.980469 93.511719 12.445312 93.90625 11.90625 C 94.179688 12.109375 94.617188 12.324219 95.234375 12.304688 C 95.847656 12.285156 96.644531 12.023438 97.605469 11.277344 L 99.222656 12.414062 C 98.808594 13.601562 98.796875 14.433594 98.953125 15.035156 Z M 98.953125 15.035156 " fill-opacity="1" fill-rule="nonzero"/></g></g></g><g clip-path="url(#856d939f48)"><path fill="#9cff1e" d="M 16.121094 20.308594 L 16.121094 22.46875 C 13.503906 23.234375 13.113281 24.59375 13.113281 25.332031 L 10.863281 25.332031 C 10.863281 24.714844 11.007812 23.59375 11.867188 22.515625 L 8.253906 22.515625 L 8.253906 20.265625 L 11.867188 20.265625 C 11.007812 19.183594 10.863281 18.066406 10.863281 17.445312 L 13.113281 17.445312 C 13.113281 18.1875 13.503906 19.542969 16.121094 20.308594 Z M 16.121094 20.308594 " fill-opacity="1" fill-rule="nonzero"/></g><g fill="#2563eb" fill-opacity="1"><g transform="translate(21.546177, 25.013592)"><g><path d="M 0.109375 0 L 3.195312 0 L 3.714844 -1.359375 L 6.929688 -1.359375 L 7.449219 0 L 10.539062 0 L 7.40625 -7.558594 L 3.238281 -7.558594 Z M 4.449219 -3.304688 L 5.324219 -5.613281 L 6.195312 -3.304688 Z M 4.449219 -3.304688 "/></g></g></g><g fill="#2563eb" fill-opacity="1"><g transform="translate(32.190743, 25.013592)"><g><path d="M 0.214844 0 L 3.023438 0 L 3.023438 -1.769531 L 4.675781 -1.769531 L 5.722656 0 L 9.046875 0 L 7.707031 -2.171875 C 8.539062 -2.65625 9.046875 -3.5625 9.046875 -4.664062 C 9.046875 -6.347656 7.871094 -7.558594 6.152344 -7.558594 L 0.214844 -7.558594 Z M 3.023438 -4.144531 L 3.023438 -5.183594 L 5.613281 -5.183594 C 5.894531 -5.183594 6.242188 -5.183594 6.242188 -4.664062 C 6.242188 -4.144531 5.894531 -4.144531 5.613281 -4.144531 Z M 3.023438 -4.144531 "/></g></g></g><g fill="#2563eb" fill-opacity="1"><g transform="translate(41.345503, 25.013592)"><g><path d="M 4.859375 0.109375 C 8.171875 0.109375 9.609375 -1.164062 9.609375 -3.789062 C 9.609375 -6.402344 8.171875 -7.664062 4.859375 -7.664062 C 1.53125 -7.664062 0.109375 -6.414062 0.109375 -3.789062 C 0.109375 -1.15625 1.53125 0.109375 4.859375 0.109375 Z M 4.859375 -2.265625 C 3.207031 -2.265625 2.914062 -2.980469 2.914062 -3.789062 C 2.914062 -4.589844 3.195312 -5.289062 4.859375 -5.289062 C 6.519531 -5.289062 6.800781 -4.578125 6.800781 -3.789062 C 6.800781 -2.992188 6.511719 -2.265625 4.859375 -2.265625 Z M 4.859375 -2.265625 "/></g></g></g><g fill="#2563eb" fill-opacity="1"><g transform="translate(51.061638, 25.013592)"><g><path d="M 4.933594 0.109375 C 8.03125 0.109375 9.761719 -0.421875 9.761719 -2.503906 C 9.761719 -4.480469 7.914062 -4.6875 4.933594 -4.804688 C 3.292969 -4.871094 3.023438 -4.859375 3.023438 -5.148438 C 3.023438 -5.441406 3.292969 -5.507812 4.609375 -5.507812 C 5.980469 -5.507812 6.628906 -5.417969 6.628906 -5.019531 L 9.4375 -5.019531 C 9.4375 -6.953125 7.773438 -7.664062 4.824219 -7.664062 C 1.847656 -7.664062 0.214844 -6.953125 0.214844 -5.289062 C 0.214844 -3.53125 1.523438 -2.96875 4.933594 -2.859375 C 6.703125 -2.808594 6.953125 -2.765625 6.953125 -2.441406 C 6.953125 -2.160156 6.703125 -2.050781 5.042969 -2.050781 C 3.261719 -2.050781 2.914062 -2.300781 2.914062 -2.667969 L 0.109375 -2.667969 C 0.109375 -0.421875 1.835938 0.109375 4.933594 0.109375 Z M 4.933594 0.109375 "/></g></g></g><g fill="#2563eb" fill-opacity="1"><g transform="translate(60.928915, 25.013592)"><g><path d="M 4.859375 0.109375 C 7.890625 0.109375 9.457031 -0.960938 9.578125 -3.359375 L 6.703125 -3.359375 C 6.597656 -2.632812 6.046875 -2.265625 4.859375 -2.265625 C 3.207031 -2.265625 2.914062 -2.980469 2.914062 -3.789062 C 2.914062 -4.589844 3.195312 -5.289062 4.859375 -5.289062 C 6.046875 -5.289062 6.597656 -4.933594 6.703125 -4.222656 L 9.578125 -4.222656 C 9.457031 -6.605469 7.882812 -7.664062 4.859375 -7.664062 C 1.53125 -7.664062 0.109375 -6.414062 0.109375 -3.789062 C 0.109375 -1.15625 1.53125 0.109375 4.859375 0.109375 Z M 4.859375 0.109375 "/></g></g></g><g fill="#2563eb" fill-opacity="1"><g transform="translate(70.614529, 25.013592)"><g/></g></g><g fill="#2563eb" fill-opacity="1"><g transform="translate(74.932814, 25.013592)"><g/></g></g><g fill="#2563eb" fill-opacity="1"><g transform="translate(79.251098, 25.013592)"><g/></g></g><g fill="#2563eb" fill-opacity="1"><g transform="translate(83.570995, 25.013592)"><g><path d="M 0.109375 0 L 3.195312 0 L 3.714844 -1.359375 L 6.929688 -1.359375 L 7.449219 0 L 10.539062 0 L 7.40625 -7.558594 L 3.238281 -7.558594 Z M 4.449219 -3.304688 L 5.324219 -5.613281 L 6.195312 -3.304688 Z M 4.449219 -3.304688 "/></g></g></g></svg>