<svg xmlns="http://www.w3.org/2000/svg" xmlns:xlink="http://www.w3.org/1999/xlink" width="500" zoomAndPan="magnify" viewBox="0 0 375 149.999998" height="200" preserveAspectRatio="xMidYMid meet" version="1.0"><defs><g/><clipPath id="268d24e9b5"><path d="M 187 16 L 360 16 L 360 144 L 187 144 Z M 187 16 " clip-rule="nonzero"/></clipPath><clipPath id="c08f784d44"><path d="M 179.820312 35.449219 L 346.007812 -4.832031 L 374.984375 114.707031 L 208.792969 154.988281 Z M 179.820312 35.449219 " clip-rule="nonzero"/></clipPath><clipPath id="688e214216"><path d="M 179.820312 35.449219 L 346.007812 -4.832031 L 374.984375 114.707031 L 208.792969 154.988281 Z M 179.820312 35.449219 " clip-rule="nonzero"/></clipPath><clipPath id="7708ecd7ae"><path d="M 0 61.019531 L 30.75 61.019531 L 30.75 91.769531 L 0 91.769531 Z M 0 61.019531 " clip-rule="nonzero"/></clipPath></defs><g clip-path="url(#268d24e9b5)"><g clip-path="url(#c08f784d44)"><g clip-path="url(#688e214216)"><path fill="#9cff1e" d="M 356.191406 51.566406 C 356.8125 53.925781 358.117188 55.332031 359.191406 56.121094 C 357.574219 58.3125 355.949219 60.488281 354.3125 62.660156 C 352.535156 61.320312 349.640625 58.480469 348.375 53.691406 C 345.375 57.707031 342.335938 61.695312 339.265625 65.65625 C 335.753906 70.175781 332.195312 74.664062 328.585938 79.109375 C 324.972656 83.558594 321.304688 87.960938 317.566406 92.316406 C 313.828125 96.667969 310.019531 100.96875 306.121094 105.199219 C 302.21875 109.425781 298.230469 113.585938 294.09375 117.628906 C 289.960938 121.671875 285.6875 125.601562 281.160156 129.320312 C 276.621094 133.023438 271.867188 136.558594 266.453125 139.464844 C 263.738281 140.898438 260.839844 142.183594 257.570312 142.976562 C 255.933594 143.359375 254.191406 143.617188 252.34375 143.589844 C 251.421875 143.578125 250.476562 143.480469 249.523438 143.3125 C 248.570312 143.121094 247.621094 142.84375 246.695312 142.46875 C 245.773438 142.082031 244.886719 141.601562 244.066406 141.039062 C 243.324219 140.46875 242.570312 139.9375 241.910156 139.246094 C 241.207031 138.613281 240.625 137.855469 240.035156 137.109375 C 239.773438 136.714844 239.519531 136.316406 239.265625 135.917969 C 239.132812 135.71875 239.019531 135.511719 238.917969 135.304688 L 238.601562 134.675781 C 237.792969 133 237.246094 131.242188 236.976562 129.535156 L 236.863281 128.890625 L 236.792969 128.257812 C 236.75 127.835938 236.699219 127.410156 236.667969 126.988281 C 236.644531 126.164062 236.582031 125.320312 236.625 124.515625 C 236.695312 121.257812 237.199219 118.179688 237.890625 115.222656 C 238.585938 112.265625 239.460938 109.414062 240.425781 106.625 C 242.359375 101.050781 244.644531 95.714844 247.019531 90.464844 C 249.398438 85.214844 251.882812 80.058594 254.339844 74.925781 C 256.796875 69.792969 259.238281 64.683594 261.503906 59.550781 C 263.757812 54.421875 265.878906 49.253906 267.410156 44.085938 C 268.167969 41.507812 268.765625 38.925781 269.050781 36.445312 L 269.128906 35.527344 L 269.167969 35.070312 L 269.175781 34.625 C 269.179688 34.328125 269.195312 34.027344 269.195312 33.738281 L 269.15625 32.882812 C 269.074219 31.769531 268.886719 30.730469 268.570312 29.851562 C 268.234375 28.984375 267.789062 28.277344 267.207031 27.679688 C 267.058594 27.53125 266.925781 27.367188 266.738281 27.246094 L 266.480469 27.042969 C 266.394531 26.972656 266.324219 26.898438 266.207031 26.835938 C 265.992188 26.707031 265.78125 26.570312 265.570312 26.433594 L 264.898438 26.09375 C 263.988281 25.675781 263.003906 25.386719 261.949219 25.222656 C 260.894531 25.054688 259.757812 25.058594 258.597656 25.140625 C 256.265625 25.316406 253.8125 25.976562 251.382812 26.855469 C 248.953125 27.757812 246.542969 28.902344 244.171875 30.1875 C 239.4375 32.78125 234.875 35.921875 230.464844 39.285156 C 226.050781 42.65625 221.78125 46.277344 217.628906 50.042969 C 213.476562 53.808594 209.429688 57.714844 205.488281 61.726562 C 203.515625 63.734375 201.570312 65.765625 199.652344 67.824219 C 198.695312 68.851562 197.742188 69.886719 196.800781 70.925781 C 195.863281 71.957031 194.910156 73.023438 194.03125 74.039062 L 187.894531 68.761719 C 188.878906 67.625 189.828125 66.570312 190.804688 65.492188 C 191.773438 64.421875 192.75 63.359375 193.734375 62.304688 C 195.703125 60.195312 197.695312 58.113281 199.714844 56.054688 C 203.757812 51.941406 207.910156 47.929688 212.195312 44.042969 C 216.484375 40.15625 220.910156 36.402344 225.550781 32.855469 C 230.195312 29.316406 235.039062 25.964844 240.300781 23.082031 C 242.9375 21.652344 245.679688 20.339844 248.589844 19.257812 C 251.511719 18.207031 254.601562 17.339844 257.960938 17.074219 C 259.636719 16.953125 261.367188 16.945312 263.128906 17.214844 C 264.890625 17.484375 266.664062 17.988281 268.339844 18.769531 C 268.75 18.976562 269.164062 19.179688 269.570312 19.398438 L 270.742188 20.132812 C 270.933594 20.246094 271.132812 20.410156 271.328125 20.558594 L 271.910156 21.019531 C 272.304688 21.308594 272.652344 21.675781 273.007812 22.035156 C 274.414062 23.46875 275.484375 25.238281 276.160156 27.035156 C 276.8125 28.839844 277.105469 30.632812 277.230469 32.355469 L 277.285156 33.632812 C 277.289062 34.054688 277.273438 34.464844 277.265625 34.882812 L 277.25 35.503906 L 277.199219 36.113281 L 277.097656 37.324219 C 276.730469 40.503906 276.019531 43.488281 275.175781 46.371094 C 273.464844 52.132812 271.234375 57.523438 268.90625 62.816406 C 266.570312 68.109375 264.101562 73.28125 261.636719 78.421875 C 259.175781 83.5625 256.714844 88.671875 254.390625 93.804688 C 252.070312 98.929688 249.871094 104.082031 248.070312 109.273438 C 247.175781 111.867188 246.378906 114.46875 245.773438 117.058594 C 245.160156 119.644531 244.765625 122.222656 244.714844 124.664062 C 244.679688 125.28125 244.734375 125.863281 244.746094 126.457031 C 244.765625 126.75 244.804688 127.03125 244.832031 127.316406 L 244.875 127.746094 L 244.953125 128.152344 C 245.117188 129.261719 245.453125 130.246094 245.878906 131.128906 L 246.039062 131.457031 C 246.089844 131.570312 246.144531 131.679688 246.21875 131.773438 C 246.351562 131.972656 246.476562 132.171875 246.601562 132.375 C 246.910156 132.734375 247.175781 133.128906 247.546875 133.441406 C 247.859375 133.796875 248.296875 134.066406 248.664062 134.378906 C 249.023438 134.621094 249.394531 134.820312 249.78125 134.988281 C 250.179688 135.144531 250.597656 135.269531 251.042969 135.363281 C 251.496094 135.4375 251.964844 135.492188 252.46875 135.5 C 253.472656 135.511719 254.574219 135.367188 255.703125 135.105469 C 257.976562 134.554688 260.347656 133.546875 262.660156 132.316406 C 267.296875 129.835938 271.753906 126.5625 276.027344 123.0625 C 280.304688 119.550781 284.425781 115.761719 288.4375 111.839844 C 292.445312 107.917969 296.347656 103.855469 300.171875 99.710938 C 303.996094 95.566406 307.742188 91.332031 311.425781 87.042969 C 315.109375 82.753906 318.730469 78.402344 322.304688 74.007812 C 325.875 69.609375 329.394531 65.171875 332.871094 60.691406 C 335.914062 56.773438 338.921875 52.824219 341.890625 48.847656 C 336.957031 48.960938 333.445312 46.921875 331.667969 45.585938 C 333.246094 43.488281 334.816406 41.386719 336.375 39.277344 C 337.445312 40.070312 339.164062 40.917969 341.578125 40.835938 C 343.984375 40.761719 347.117188 39.738281 350.894531 36.796875 L 357.246094 41.273438 C 355.625 45.925781 355.570312 49.203125 356.191406 51.566406 Z M 356.191406 51.566406 " fill-opacity="1" fill-rule="nonzero"/></g></g></g><g clip-path="url(#7708ecd7ae)"><path fill="#9cff1e" d="M 30.917969 72.269531 L 30.917969 80.753906 C 20.636719 83.761719 19.101562 89.09375 19.101562 92.003906 L 10.257812 92.003906 C 10.257812 89.574219 10.820312 85.175781 14.195312 80.933594 L 0.0117188 80.933594 L 0.0117188 72.089844 L 14.195312 72.089844 C 10.820312 67.847656 10.257812 63.449219 10.257812 61.019531 L 19.101562 61.019531 C 19.101562 63.929688 20.636719 69.261719 30.917969 72.269531 Z M 30.917969 72.269531 " fill-opacity="1" fill-rule="nonzero"/></g><g fill="#ffffff" fill-opacity="1"><g transform="translate(52.207814, 90.733889)"><g><path d="M 0.425781 0 L 12.546875 0 L 14.582031 -5.339844 L 27.214844 -5.339844 L 29.25 0 L 41.375 0 L 29.082031 -29.675781 L 12.71875 -29.675781 Z M 17.464844 -12.972656 L 20.898438 -22.042969 L 24.332031 -12.972656 Z M 17.464844 -12.972656 "/></g></g></g><g fill="#ffffff" fill-opacity="1"><g transform="translate(94.005218, 90.733889)"><g><path d="M 0.847656 0 L 11.871094 0 L 11.871094 -6.953125 L 18.355469 -6.953125 L 22.46875 0 L 35.527344 0 L 30.269531 -8.519531 C 33.53125 -10.429688 35.527344 -13.988281 35.527344 -18.3125 C 35.527344 -24.925781 30.90625 -29.675781 24.164062 -29.675781 L 0.847656 -29.675781 Z M 11.871094 -16.277344 L 11.871094 -20.347656 L 22.042969 -20.347656 C 23.148438 -20.347656 24.503906 -20.347656 24.503906 -18.3125 C 24.503906 -16.277344 23.148438 -16.277344 22.042969 -16.277344 Z M 11.871094 -16.277344 "/></g></g></g><g fill="#ffffff" fill-opacity="1"><g transform="translate(129.95269, 90.733889)"><g><path d="M 19.078125 0.425781 C 32.089844 0.425781 37.730469 -4.578125 37.730469 -14.878906 C 37.730469 -25.140625 32.089844 -30.097656 19.078125 -30.097656 C 6.019531 -30.097656 0.425781 -25.183594 0.425781 -14.878906 C 0.425781 -4.535156 6.019531 0.425781 19.078125 0.425781 Z M 19.078125 -8.902344 C 12.589844 -8.902344 11.445312 -11.699219 11.445312 -14.878906 C 11.445312 -18.015625 12.546875 -20.773438 19.078125 -20.773438 C 25.605469 -20.773438 26.707031 -17.976562 26.707031 -14.878906 C 26.707031 -11.742188 25.5625 -8.902344 19.078125 -8.902344 Z M 19.078125 -8.902344 "/></g></g></g><g fill="#ffffff" fill-opacity="1"><g transform="translate(168.104479, 90.733889)"><g><path d="M 19.375 0.425781 C 31.539062 0.425781 38.324219 -1.652344 38.324219 -9.835938 C 38.324219 -17.59375 31.074219 -18.398438 19.375 -18.863281 C 12.929688 -19.121094 11.871094 -19.078125 11.871094 -20.222656 C 11.871094 -21.367188 12.929688 -21.621094 18.101562 -21.621094 C 23.484375 -21.621094 26.03125 -21.28125 26.03125 -19.714844 L 37.050781 -19.714844 C 37.050781 -27.300781 30.523438 -30.097656 18.949219 -30.097656 C 7.25 -30.097656 0.847656 -27.300781 0.847656 -20.773438 C 0.847656 -13.863281 5.976562 -11.65625 19.375 -11.234375 C 26.328125 -11.023438 27.300781 -10.851562 27.300781 -9.582031 C 27.300781 -8.480469 26.328125 -8.054688 19.796875 -8.054688 C 12.804688 -8.054688 11.445312 -9.03125 11.445312 -10.472656 L 0.425781 -10.472656 C 0.425781 -1.652344 7.207031 0.425781 19.375 0.425781 Z M 19.375 0.425781 "/></g></g></g><g fill="#ffffff" fill-opacity="1"><g transform="translate(206.849747, 90.733889)"><g><path d="M 19.078125 0.425781 C 30.988281 0.425781 37.136719 -3.773438 37.601562 -13.183594 L 26.328125 -13.183594 C 25.902344 -10.34375 23.742188 -8.902344 19.078125 -8.902344 C 12.589844 -8.902344 11.445312 -11.699219 11.445312 -14.878906 C 11.445312 -18.015625 12.546875 -20.773438 19.078125 -20.773438 C 23.742188 -20.773438 25.902344 -19.375 26.328125 -16.574219 L 37.601562 -16.574219 C 37.136719 -25.945312 30.945312 -30.097656 19.078125 -30.097656 C 6.019531 -30.097656 0.425781 -25.183594 0.425781 -14.878906 C 0.425781 -4.535156 6.019531 0.425781 19.078125 0.425781 Z M 19.078125 0.425781 "/></g></g></g><g fill="#ffffff" fill-opacity="1"><g transform="translate(244.874377, 90.733889)"><g><path d="M 0.847656 0 L 11.871094 0 L 11.871094 -5.636719 L 16.449219 -9.410156 L 25.945312 0 L 41.207031 0 L 24.121094 -15.6875 L 41.207031 -29.675781 L 25.519531 -29.675781 L 11.871094 -18.058594 L 11.871094 -29.675781 L 0.847656 -29.675781 Z M 0.847656 0 "/></g></g></g><g fill="#ffffff" fill-opacity="1"><g transform="translate(286.502221, 90.733889)"><g><path d="M 0.425781 0 L 12.546875 0 L 14.582031 -5.339844 L 27.214844 -5.339844 L 29.25 0 L 41.375 0 L 29.082031 -29.675781 L 12.71875 -29.675781 Z M 17.464844 -12.972656 L 20.898438 -22.042969 L 24.332031 -12.972656 Z M 17.464844 -12.972656 "/></g></g></g></svg>