<svg xmlns="http://www.w3.org/2000/svg" xmlns:xlink="http://www.w3.org/1999/xlink" width="150" zoomAndPan="magnify" viewBox="0 0 112.5 44.999999" height="60" preserveAspectRatio="xMidYMid meet" version="1.0"><defs><g/><clipPath id="66b705c04d"><path d="M 58 3 L 112 3 L 112 42 L 58 42 Z M 58 3 " clip-rule="nonzero"/></clipPath><clipPath id="b967a07518"><path d="M 56.179688 8.914062 L 106.976562 -3.398438 L 115.773438 32.882812 L 64.976562 45.195312 Z M 56.179688 8.914062 " clip-rule="nonzero"/></clipPath><clipPath id="4666551f6c"><path d="M 56.179688 8.914062 L 106.976562 -3.398438 L 115.773438 32.882812 L 64.976562 45.195312 Z M 56.179688 8.914062 " clip-rule="nonzero"/></clipPath><clipPath id="ca5d8227bf"><path d="M 1.195312 16.730469 L 10.902344 16.730469 L 10.902344 26.4375 L 1.195312 26.4375 Z M 1.195312 16.730469 " clip-rule="nonzero"/></clipPath></defs><g clip-path="url(#66b705c04d)"><g clip-path="url(#b967a07518)"><g clip-path="url(#4666551f6c)"><path fill="#9cff1e" d="M 110.109375 13.835938 C 110.300781 14.558594 110.699219 14.988281 111.027344 15.230469 C 110.535156 15.898438 110.035156 16.566406 109.535156 17.230469 C 108.992188 16.820312 108.109375 15.949219 107.722656 14.484375 C 106.804688 15.714844 105.875 16.933594 104.933594 18.144531 C 103.863281 19.527344 102.773438 20.898438 101.667969 22.257812 C 100.566406 23.617188 99.441406 24.964844 98.300781 26.296875 C 97.15625 27.628906 95.992188 28.941406 94.800781 30.238281 C 93.609375 31.527344 92.386719 32.800781 91.121094 34.035156 C 89.859375 35.273438 88.550781 36.476562 87.167969 37.613281 C 85.78125 38.746094 84.328125 39.828125 82.671875 40.714844 C 81.839844 41.152344 80.953125 41.546875 79.957031 41.789062 C 79.453125 41.90625 78.921875 41.984375 78.355469 41.976562 C 78.074219 41.972656 77.785156 41.941406 77.496094 41.890625 C 77.203125 41.832031 76.910156 41.746094 76.628906 41.632812 C 76.347656 41.515625 76.078125 41.367188 75.824219 41.195312 C 75.597656 41.019531 75.367188 40.859375 75.164062 40.648438 C 74.953125 40.453125 74.773438 40.222656 74.59375 39.992188 C 74.511719 39.875 74.433594 39.75 74.355469 39.628906 C 74.316406 39.570312 74.28125 39.503906 74.25 39.441406 L 74.15625 39.25 C 73.90625 38.738281 73.738281 38.199219 73.65625 37.679688 L 73.621094 37.480469 L 73.601562 37.289062 C 73.589844 37.160156 73.574219 37.027344 73.5625 36.898438 C 73.554688 36.648438 73.539062 36.390625 73.550781 36.144531 C 73.570312 35.148438 73.726562 34.207031 73.9375 33.300781 C 74.148438 32.398438 74.417969 31.527344 74.710938 30.671875 C 75.304688 28.96875 76.003906 27.335938 76.730469 25.730469 C 77.457031 24.125 78.214844 22.550781 78.964844 20.980469 C 79.71875 19.410156 80.464844 17.847656 81.15625 16.277344 C 81.847656 14.710938 82.496094 13.128906 82.964844 11.550781 C 83.195312 10.761719 83.378906 9.972656 83.464844 9.210938 L 83.488281 8.933594 L 83.5 8.792969 L 83.503906 8.65625 C 83.503906 8.566406 83.507812 8.472656 83.507812 8.386719 L 83.496094 8.125 C 83.472656 7.785156 83.414062 7.464844 83.320312 7.195312 C 83.214844 6.933594 83.078125 6.714844 82.902344 6.53125 C 82.855469 6.488281 82.816406 6.4375 82.757812 6.398438 L 82.679688 6.335938 C 82.652344 6.316406 82.632812 6.292969 82.59375 6.273438 C 82.53125 6.234375 82.464844 6.195312 82.402344 6.152344 L 82.195312 6.046875 C 81.917969 5.917969 81.617188 5.832031 81.292969 5.78125 C 80.972656 5.730469 80.625 5.730469 80.269531 5.757812 C 79.554688 5.808594 78.804688 6.011719 78.0625 6.28125 C 77.320312 6.558594 76.582031 6.90625 75.859375 7.300781 C 74.410156 8.09375 73.015625 9.054688 71.664062 10.082031 C 70.316406 11.113281 69.011719 12.21875 67.742188 13.371094 C 66.472656 14.523438 65.234375 15.714844 64.027344 16.945312 C 63.425781 17.558594 62.832031 18.179688 62.246094 18.808594 C 61.953125 19.121094 61.660156 19.4375 61.371094 19.757812 C 61.085938 20.074219 60.792969 20.398438 60.527344 20.707031 L 58.648438 19.09375 C 58.949219 18.746094 59.238281 18.425781 59.539062 18.09375 C 59.835938 17.765625 60.132812 17.441406 60.433594 17.121094 C 61.035156 16.476562 61.644531 15.839844 62.265625 15.210938 C 63.5 13.953125 64.769531 12.726562 66.078125 11.535156 C 67.390625 10.347656 68.746094 9.199219 70.164062 8.113281 C 71.585938 7.03125 73.066406 6.007812 74.671875 5.128906 C 75.480469 4.691406 76.320312 4.289062 77.207031 3.957031 C 78.101562 3.636719 79.046875 3.371094 80.074219 3.289062 C 80.585938 3.253906 81.113281 3.25 81.65625 3.332031 C 82.191406 3.414062 82.734375 3.570312 83.246094 3.808594 C 83.375 3.871094 83.5 3.933594 83.625 4 L 83.984375 4.226562 C 84.042969 4.257812 84.101562 4.308594 84.160156 4.355469 L 84.339844 4.496094 C 84.460938 4.585938 84.566406 4.695312 84.675781 4.804688 C 85.105469 5.246094 85.433594 5.785156 85.636719 6.335938 C 85.839844 6.886719 85.929688 7.433594 85.964844 7.960938 L 85.984375 8.351562 C 85.984375 8.480469 85.980469 8.609375 85.976562 8.734375 L 85.972656 8.925781 L 85.957031 9.109375 L 85.925781 9.480469 C 85.8125 10.453125 85.59375 11.367188 85.335938 12.25 C 84.816406 14.007812 84.132812 15.65625 83.421875 17.277344 C 82.707031 18.894531 81.953125 20.476562 81.199219 22.046875 C 80.445312 23.621094 79.691406 25.183594 78.984375 26.75 C 78.273438 28.320312 77.601562 29.894531 77.050781 31.480469 C 76.777344 32.273438 76.53125 33.070312 76.347656 33.863281 C 76.160156 34.652344 76.039062 35.441406 76.023438 36.1875 C 76.011719 36.378906 76.03125 36.554688 76.03125 36.738281 C 76.039062 36.824219 76.050781 36.910156 76.058594 37 L 76.074219 37.128906 L 76.097656 37.253906 C 76.148438 37.59375 76.25 37.894531 76.378906 38.164062 L 76.429688 38.265625 C 76.445312 38.300781 76.460938 38.332031 76.484375 38.363281 C 76.523438 38.421875 76.5625 38.484375 76.601562 38.546875 C 76.695312 38.65625 76.777344 38.777344 76.890625 38.871094 C 76.984375 38.980469 77.117188 39.0625 77.230469 39.160156 C 77.339844 39.234375 77.453125 39.292969 77.574219 39.347656 C 77.695312 39.394531 77.824219 39.429688 77.957031 39.460938 C 78.097656 39.484375 78.242188 39.5 78.394531 39.5 C 78.703125 39.507812 79.039062 39.460938 79.382812 39.378906 C 80.078125 39.214844 80.804688 38.90625 81.511719 38.527344 C 82.929688 37.769531 84.292969 36.769531 85.597656 35.699219 C 86.90625 34.625 88.167969 33.464844 89.394531 32.269531 C 90.621094 31.066406 91.8125 29.824219 92.980469 28.558594 C 94.152344 27.289062 95.296875 25.996094 96.421875 24.683594 C 97.546875 23.371094 98.65625 22.042969 99.75 20.699219 C 100.839844 19.355469 101.917969 17.996094 102.980469 16.628906 C 103.910156 15.429688 104.828125 14.222656 105.738281 13.003906 C 104.230469 13.039062 103.15625 12.417969 102.613281 12.007812 C 103.09375 11.367188 103.574219 10.722656 104.050781 10.078125 C 104.378906 10.320312 104.90625 10.582031 105.644531 10.554688 C 106.378906 10.53125 107.335938 10.21875 108.492188 9.320312 L 110.433594 10.6875 C 109.9375 12.113281 109.921875 13.113281 110.109375 13.835938 Z M 110.109375 13.835938 " fill-opacity="1" fill-rule="nonzero"/></g></g></g><g clip-path="url(#ca5d8227bf)"><path fill="#9cff1e" d="M 10.644531 20.171875 L 10.644531 22.765625 C 7.5 23.683594 7.03125 25.316406 7.03125 26.207031 L 4.328125 26.207031 C 4.328125 25.460938 4.5 24.117188 5.53125 22.820312 L 1.195312 22.820312 L 1.195312 20.117188 L 5.53125 20.117188 C 4.5 18.820312 4.328125 17.472656 4.328125 16.730469 L 7.03125 16.730469 C 7.03125 17.621094 7.5 19.25 10.644531 20.171875 Z M 10.644531 20.171875 " fill-opacity="1" fill-rule="nonzero"/></g><g fill="#ffffff" fill-opacity="1"><g transform="translate(17.158829, 25.817754)"><g><path d="M 0.128906 0 L 3.835938 0 L 4.460938 -1.632812 L 8.324219 -1.632812 L 8.945312 0 L 12.652344 0 L 8.894531 -9.074219 L 3.890625 -9.074219 Z M 5.339844 -3.964844 L 6.390625 -6.742188 L 7.441406 -3.964844 Z M 5.339844 -3.964844 "/></g></g></g><g fill="#ffffff" fill-opacity="1"><g transform="translate(29.939666, 25.817754)"><g><path d="M 0.257812 0 L 3.628906 0 L 3.628906 -2.125 L 5.613281 -2.125 L 6.871094 0 L 10.863281 0 L 9.253906 -2.605469 C 10.253906 -3.1875 10.863281 -4.277344 10.863281 -5.601562 C 10.863281 -7.621094 9.449219 -9.074219 7.390625 -9.074219 L 0.257812 -9.074219 Z M 3.628906 -4.976562 L 3.628906 -6.222656 L 6.742188 -6.222656 C 7.078125 -6.222656 7.492188 -6.222656 7.492188 -5.601562 C 7.492188 -4.976562 7.078125 -4.976562 6.742188 -4.976562 Z M 3.628906 -4.976562 "/></g></g></g><g fill="#ffffff" fill-opacity="1"><g transform="translate(40.931707, 25.817754)"><g><path d="M 5.832031 0.128906 C 9.8125 0.128906 11.539062 -1.398438 11.539062 -4.550781 C 11.539062 -7.6875 9.8125 -9.203125 5.832031 -9.203125 C 1.839844 -9.203125 0.128906 -7.699219 0.128906 -4.550781 C 0.128906 -1.386719 1.839844 0.128906 5.832031 0.128906 Z M 5.832031 -2.722656 C 3.851562 -2.722656 3.5 -3.578125 3.5 -4.550781 C 3.5 -5.507812 3.835938 -6.351562 5.832031 -6.351562 C 7.828125 -6.351562 8.167969 -5.496094 8.167969 -4.550781 C 8.167969 -3.589844 7.816406 -2.722656 5.832031 -2.722656 Z M 5.832031 -2.722656 "/></g></g></g><g fill="#ffffff" fill-opacity="1"><g transform="translate(52.597786, 25.817754)"><g><path d="M 5.925781 0.128906 C 9.644531 0.128906 11.71875 -0.503906 11.71875 -3.007812 C 11.71875 -5.378906 9.5 -5.625 5.925781 -5.769531 C 3.953125 -5.847656 3.628906 -5.832031 3.628906 -6.183594 C 3.628906 -6.535156 3.953125 -6.609375 5.535156 -6.609375 C 7.179688 -6.609375 7.960938 -6.507812 7.960938 -6.027344 L 11.328125 -6.027344 C 11.328125 -8.347656 9.332031 -9.203125 5.792969 -9.203125 C 2.214844 -9.203125 0.257812 -8.347656 0.257812 -6.351562 C 0.257812 -4.238281 1.828125 -3.566406 5.925781 -3.433594 C 8.050781 -3.371094 8.347656 -3.320312 8.347656 -2.929688 C 8.347656 -2.59375 8.050781 -2.464844 6.054688 -2.464844 C 3.914062 -2.464844 3.5 -2.761719 3.5 -3.203125 L 0.128906 -3.203125 C 0.128906 -0.503906 2.203125 0.128906 5.925781 0.128906 Z M 5.925781 0.128906 "/></g></g></g><g fill="#ffffff" fill-opacity="1"><g transform="translate(64.445339, 25.817754)"><g><path d="M 5.832031 0.128906 C 9.476562 0.128906 11.355469 -1.152344 11.5 -4.03125 L 8.050781 -4.03125 C 7.921875 -3.164062 7.257812 -2.722656 5.832031 -2.722656 C 3.851562 -2.722656 3.5 -3.578125 3.5 -4.550781 C 3.5 -5.507812 3.835938 -6.351562 5.832031 -6.351562 C 7.257812 -6.351562 7.921875 -5.925781 8.050781 -5.070312 L 11.5 -5.070312 C 11.355469 -7.933594 9.464844 -9.203125 5.832031 -9.203125 C 1.839844 -9.203125 0.128906 -7.699219 0.128906 -4.550781 C 0.128906 -1.386719 1.839844 0.128906 5.832031 0.128906 Z M 5.832031 0.128906 "/></g></g></g><g fill="#ffffff" fill-opacity="1"><g transform="translate(76.072535, 25.817754)"><g><path d="M 0.257812 0 L 3.628906 0 L 3.628906 -1.722656 L 5.03125 -2.878906 L 7.933594 0 L 12.601562 0 L 7.375 -4.796875 L 12.601562 -9.074219 L 7.804688 -9.074219 L 3.628906 -5.523438 L 3.628906 -9.074219 L 0.257812 -9.074219 Z M 0.257812 0 "/></g></g></g><g fill="#ffffff" fill-opacity="1"><g transform="translate(88.801524, 25.817754)"><g><path d="M 0.128906 0 L 3.835938 0 L 4.460938 -1.632812 L 8.324219 -1.632812 L 8.945312 0 L 12.652344 0 L 8.894531 -9.074219 L 3.890625 -9.074219 Z M 5.339844 -3.964844 L 6.390625 -6.742188 L 7.441406 -3.964844 Z M 5.339844 -3.964844 "/></g></g></g></svg>